<?xml version="1.0" encoding="UTF-8" standalone="no"?>
<!DOCTYPE svg PUBLIC "-//W3C//DTD SVG 1.1//EN" "http://www.w3.org/Graphics/SVG/1.1/DTD/svg11.dtd">
<svg width="100%" height="100%" viewBox="0 0 1000 1000" version="1.1" xmlns="http://www.w3.org/2000/svg" xmlns:xlink="http://www.w3.org/1999/xlink" xml:space="preserve" xmlns:serif="http://www.serif.com/" style="fill-rule:evenodd;clip-rule:evenodd;stroke-linecap:round;stroke-linejoin:round;stroke-miterlimit:10;">
    <g>
        <g id="XMLID_15_" transform="matrix(1.83203,0,0,1.83203,-401.725,-444.444)">
            <path d="M653,558C683.5,560.7 714,558 744.5,549.8C739.9,542.4 739,520.3 742.6,513.4C734,512.8 733.6,490.6 736,479.6C723.7,474.7 715.1,468.5 713.6,459.7C704.5,458.2 698.9,452.5 695.8,443.9C686.5,459.7 671,475.4 654.2,491.1L653,558Z" style="fill:rgb(224,77,43);fill-rule:nonzero;"/>
        </g>
        <g id="XMLID_96_" transform="matrix(1.83203,0,0,1.83203,-401.725,-444.444)">
            <path d="M474.5,285.3L474.5,330.3C480.7,322.4 490.1,312.6 500,314C508.8,315.3 511.2,324.5 518.7,325.9C525.4,327.1 536.3,322.2 554.2,291.8C537,304.4 527.5,304.4 522.1,301.9C511.8,297.1 513,282 502.4,277.4C493.7,273.7 482.7,279.5 474.5,285.3Z" style="fill:rgb(93,93,90);fill-rule:nonzero;"/>
        </g>
        <g id="XMLID_48_" transform="matrix(1.83203,0,0,1.83203,-401.725,-444.444)">
            <path d="M632.9,564.4C632.9,564.4 508.9,567 384.9,541.9C402.2,479.1 400.6,388.1 400.6,388.1C521,375.5 576.4,342.6 576.4,342.6C576.4,342.6 584.3,377.2 613,395C608.1,420.8 616.5,438.7 632.9,459C618.4,473.5 633.7,501.7 641,509C626,524 622.5,554 632.9,564.4Z" style="fill:rgb(224,77,43);fill-rule:nonzero;"/>
        </g>
        <g id="XMLID_65_" transform="matrix(1.83203,0,0,1.83203,-401.725,-444.444)">
            <path d="M475.8,556C537.3,539.2 554.2,502.7 554.2,446.9C554.2,420.2 543.3,382.3 531.1,361.6C502.2,371.2 459.1,382.1 400.7,388.2C400.7,388.2 402.3,479.2 385,542C415.9,548.2 446.8,552.7 475.8,556Z" style="fill:rgb(250,146,61);fill-opacity:0.66;fill-rule:nonzero;"/>
        </g>
        <g id="XMLID_49_" transform="matrix(1.83203,0,0,1.83203,-401.725,-444.444)">
            <g opacity="0.3">
                <path id="XMLID_95_" d="M427.2,385.7C427.2,385.7 435.5,460.5 408.4,546.3" style="fill:none;fill-rule:nonzero;stroke:rgb(178,47,34);stroke-width:2px;"/>
                <path id="XMLID_94_" d="M453.1,380.8C453.1,380.8 455.9,466.1 429.9,549.9" style="fill:none;fill-rule:nonzero;stroke:rgb(178,47,34);stroke-width:2px;"/>
                <path id="XMLID_93_" d="M478.5,375.8C478.5,375.8 472.2,482 451.6,553" style="fill:none;fill-rule:nonzero;stroke:rgb(178,47,34);stroke-width:2px;"/>
                <path id="XMLID_92_" d="M506.4,368.9C506.4,368.9 495.1,490.8 473,555.6" style="fill:none;fill-rule:nonzero;stroke:rgb(178,47,34);stroke-width:2px;"/>
                <path id="XMLID_91_" d="M534.7,361.5C534.7,361.5 515.9,500.2 495.4,558" style="fill:none;fill-rule:nonzero;stroke:rgb(178,47,34);stroke-width:2px;"/>
                <path id="XMLID_90_" d="M565.6,348.9C565.6,348.9 536.1,510.2 517.3,561.1" style="fill:none;fill-rule:nonzero;stroke:rgb(178,47,34);stroke-width:2px;"/>
                <path id="XMLID_89_" d="M588.3,369.7C588.3,369.7 557.3,517.2 540.2,561.1" style="fill:none;fill-rule:nonzero;stroke:rgb(178,47,34);stroke-width:2px;"/>
                <path id="XMLID_88_" d="M613,395C613,395 577.8,527.5 562.2,564.4" style="fill:none;fill-rule:nonzero;stroke:rgb(178,47,34);stroke-width:2px;"/>
                <path id="XMLID_87_" d="M623.9,446.8C623.9,446.8 599.8,534.5 585.9,564.4" style="fill:none;fill-rule:nonzero;stroke:rgb(178,47,34);stroke-width:2px;"/>
                <path id="XMLID_86_" d="M632.9,497C632.9,497 622.1,541.5 609.9,564.5" style="fill:none;fill-rule:nonzero;stroke:rgb(178,47,34);stroke-width:2px;"/>
            </g>
        </g>
        <g id="XMLID_9_" transform="matrix(1.83203,0,0,1.83203,-401.725,-444.444)">
            <path d="M632.9,564.4C632.9,564.4 508.9,567 384.9,541.9C402.2,479.1 400.6,388.1 400.6,388.1C521,375.5 576.4,342.6 576.4,342.6" style="fill:none;fill-rule:nonzero;stroke:rgb(93,25,0);stroke-width:6px;"/>
        </g>
        <g id="XMLID_47_" transform="matrix(1.83203,0,0,1.83203,-401.725,-444.444)">
            <path d="M632.9,564.4C632.9,564.4 508.9,567 384.9,541.9C402.2,479.1 400.6,388.1 400.6,388.1C521,375.5 576.4,342.6 576.4,342.6C576.4,342.6 584.3,377.2 613,395C608.1,420.8 616.5,438.7 632.9,459C618.4,473.5 633.7,501.7 641,509C626,524 622.5,554 632.9,564.4Z" style="fill:none;fill-rule:nonzero;stroke:rgb(58,55,54);stroke-width:6px;"/>
        </g>
        <g id="XMLID_10_" transform="matrix(1.83203,0,0,1.83203,-401.725,-444.444)">
            <path d="M613,395C521,429 399.7,432.8 399.7,432.8" style="fill:none;fill-rule:nonzero;stroke:rgb(58,55,54);stroke-width:3px;"/>
        </g>
        <g id="XMLID_164_" transform="matrix(1.83203,0,0,1.83203,-401.725,-444.444)">
            <path d="M472.9,348.9L611.6,594.2" style="fill:none;fill-rule:nonzero;stroke:rgb(58,55,54);stroke-width:1px;"/>
        </g>
        <g id="XMLID_168_" transform="matrix(1.83203,0,0,1.83203,-401.725,-444.444)">
            <path d="M467.1,479.7L359.6,631.7" style="fill:none;fill-rule:nonzero;stroke:rgb(58,55,54);stroke-width:1px;"/>
        </g>
        <g id="XMLID_171_" transform="matrix(1.83203,0,0,1.83203,-401.725,-444.444)">
            <path d="M469.6,434.1L287.5,613.4" style="fill:none;fill-rule:nonzero;stroke:rgb(58,55,54);stroke-width:1px;"/>
        </g>
        <g id="XMLID_165_" transform="matrix(1.83203,0,0,1.83203,-401.725,-444.444)">
            <path d="M474.5,330.3L661.5,588.8" style="fill:none;fill-rule:nonzero;stroke:rgb(58,55,54);stroke-width:1px;"/>
        </g>
        <g id="XMLID_7_" transform="matrix(1.83203,0,0,1.83203,-401.725,-444.444)">
            <path d="M472.7,277.4C472.7,277.4 484.2,528.9 422.8,640.3" style="fill:none;fill-rule:nonzero;stroke:rgb(58,55,54);stroke-width:6px;"/>
        </g>
        <g id="XMLID_19_" transform="matrix(1.83203,0,0,1.83203,-401.725,-444.444)">
            <path id="XMLID_38_" d="M600.5,610.6L381.3,613.4L412.4,598.9L569,596.9L600.5,610.6Z" style="fill:rgb(93,93,90);fill-rule:nonzero;"/>
            <path id="XMLID_17_" d="M600.5,610.6L381.3,613.4L412.4,598.9L569,596.9L600.5,610.6Z" style="fill:none;fill-rule:nonzero;stroke:rgb(58,55,54);stroke-width:6px;"/>
            <g id="XMLID_39_" transform="matrix(0.9999,-0.0126845,0.0126845,0.9999,-7.9105,6.2795)">
                <rect x="398" y="612" width="186.2" height="29.5" style="fill:rgb(240,250,252);"/>
            </g>
            <g id="XMLID_18_" transform="matrix(0.9999,-0.0126845,0.0126845,0.9999,-7.9105,6.2795)">
                <rect x="398" y="612" width="186.2" height="29.5" style="fill:none;stroke:rgb(58,55,54);stroke-width:6px;"/>
            </g>
            <g id="XMLID_36_">
                <g id="XMLID_28_">
                    <g id="XMLID_24_" transform="matrix(0.9999,-0.0126845,0.0126845,0.9999,-7.9824,6.28)">
                        <rect x="475.9" y="623.7" width="30.3" height="17.5" style="fill:none;stroke:rgb(58,55,54);stroke-width:6px;"/>
                    </g>
                    <path id="XMLID_23_" d="M476,641.3L475.8,623.9L506.1,623.5L506.4,641" style="fill:none;fill-rule:nonzero;stroke:rgb(58,55,54);stroke-width:6px;"/>
                </g>
                <g id="XMLID_42_">
                    <g id="XMLID_55_" transform="matrix(0.9999,-0.0126845,0.0126845,0.9999,-7.9824,6.28)">
                        <rect x="475.9" y="623.7" width="30.3" height="17.5" style="fill:rgb(58,55,54);"/>
                    </g>
                    <path id="XMLID_46_" d="M476,641.3L475.8,623.9L506.1,623.5L506.4,641" style="fill:rgb(58,55,54);fill-rule:nonzero;"/>
                </g>
                <g id="XMLID_35_">
                    <g id="XMLID_30_">
                        <g id="XMLID_20_" transform="matrix(0.9999,-0.0126845,0.0126845,0.9999,-7.9941,5.6239)">
                            <rect x="424.2" y="624.3" width="30.3" height="17.5" style="fill:none;stroke:rgb(58,55,54);stroke-width:6px;"/>
                        </g>
                        <path id="XMLID_21_" d="M424.3,641.9L424.1,624.5L454.4,624.1L454.6,641.6" style="fill:none;fill-rule:nonzero;stroke:rgb(58,55,54);stroke-width:6px;"/>
                    </g>
                    <g id="XMLID_56_">
                        <g id="XMLID_70_" transform="matrix(0.9999,-0.0126845,0.0126845,0.9999,-7.9941,5.6239)">
                            <rect x="424.2" y="624.3" width="30.3" height="17.5" style="fill:rgb(58,55,54);"/>
                        </g>
                        <path id="XMLID_59_" d="M424.3,641.9L424.1,624.5L454.4,624.1L454.6,641.6" style="fill:rgb(58,55,54);fill-rule:nonzero;"/>
                    </g>
                    <g id="XMLID_22_">
                        <g id="XMLID_26_" transform="matrix(0.9999,-0.0126845,0.0126845,0.9999,-7.9691,6.9378)">
                            <rect x="527.8" y="623" width="30.3" height="17.5" style="fill:none;stroke:rgb(58,55,54);stroke-width:6px;"/>
                        </g>
                        <path id="XMLID_25_" d="M527.9,640.6L527.7,623.1L558,622.8L558.2,640.2" style="fill:none;fill-rule:nonzero;stroke:rgb(58,55,54);stroke-width:6px;"/>
                    </g>
                    <g id="XMLID_80_">
                        <g id="XMLID_83_" transform="matrix(0.9999,-0.0126845,0.0126845,0.9999,-7.9691,6.9378)">
                            <rect x="527.8" y="623" width="30.3" height="17.5" style="fill:rgb(58,55,54);"/>
                        </g>
                        <path id="XMLID_81_" d="M527.9,640.6L527.7,623.1L558,622.8L558.2,640.2" style="fill:rgb(58,55,54);fill-rule:nonzero;"/>
                    </g>
                </g>
            </g>
        </g>
        <g id="XMLID_11_" transform="matrix(1.83203,0,0,1.83203,-401.725,-444.444)">
            <path d="M632.9,459C554.8,473 399.7,469.9 399.7,469.9" style="fill:none;fill-rule:nonzero;stroke:rgb(58,55,54);stroke-width:3px;"/>
        </g>
        <g id="XMLID_12_" transform="matrix(1.83203,0,0,1.83203,-401.725,-444.444)">
            <path d="M393.5,500C400.8,507.3 607,519 641,509" style="fill:none;fill-rule:nonzero;stroke:rgb(58,55,54);stroke-width:3px;"/>
        </g>
        <g id="XMLID_40_" transform="matrix(1.83203,0,0,1.83203,-401.725,-444.444)">
            <path id="XMLID_37_" d="M713,625.2C717.9,604.4 721.4,583.9 728.4,564.3C697.2,582.3 678.7,586.4 651.2,590.3C637.8,592.2 624.5,593.5 611.6,594.1C599.6,612.4 589.5,626.1 518.3,636.2C460.9,644.4 352.6,645 272.2,608C292.2,658.3 330.9,691.1 371,699.8L613,699.8C613.1,663.5 665.9,633 713,625.2Z" style="fill:rgb(40,175,175);fill-rule:nonzero;"/>
            <g id="XMLID_141_" opacity="0.46">
                <path id="XMLID_142_" d="M302.7,620.1C292.2,616.7 282,612.7 272.2,608.2C272.4,608.7 272.6,609.3 272.9,609.8C282.5,613.7 292.5,617.1 302.7,620.1Z" style="fill:rgb(28,145,142);fill-rule:nonzero;"/>
                <path id="XMLID_143_" d="M714.2,572.1C709.4,588.3 707.5,600 703.5,616.9C656.4,624.7 602.5,660.2 602.4,696.7L360.4,696.7C359.2,696.4 358,696.2 356.8,695.8C361.5,697.5 366.3,698.9 371.1,700L613.1,700C613.2,663.5 666,633 713.1,625.2C718,604.4 721.5,583.9 728.5,564.3C723.4,567.3 718.7,569.8 714.2,572.1Z" style="fill:rgb(28,145,142);fill-opacity:0.6;fill-rule:nonzero;"/>
            </g>
            <path id="XMLID_54_" d="M716.2,610.8C619,633 553.1,637.4 506.4,641C502.8,641.6 522.3,635.8 518.3,636.4C460.9,644.6 352.6,645.2 272.2,608.2C292.2,658.5 330.9,691.3 371,700L613,700C613.1,663.5 665.9,633 713,625.2C714.1,620.4 715.2,615.6 716.2,610.8Z" style="fill:rgb(24,140,137);fill-opacity:0.17;fill-rule:nonzero;"/>
            <path id="XMLID_126_" d="M376.1,645.6C325.4,638 286.1,623.7 272.2,608.2C292.2,658.5 330.9,691.3 371,700L613,700C613.1,663.5 665.9,633 713,625.2C714.1,620.4 715.2,615.6 716.2,610.8C619,633 537.8,646.8 491.1,650.3C453.8,652.7 417.4,651.1 385,646.8" style="fill:none;fill-rule:nonzero;stroke:rgb(58,55,54);stroke-width:4px;"/>
            <path id="XMLID_51_" d="M529.4,673.9C442.3,679.5 359.9,677.7 300.2,655.3C320.2,678.9 345.3,694.4 371,700L613,700C613,685.7 621.2,672.3 633.9,660.9C601.1,667.1 566,671.5 529.4,673.9Z" style="fill:rgb(45,91,114);fill-opacity:0.54;fill-rule:nonzero;"/>
            <path id="XMLID_138_" d="M522.6,674.3C485.2,676.4 438.5,676.6 405.5,675.1" style="fill:none;fill-rule:nonzero;stroke:rgb(58,55,54);stroke-width:4px;"/>
            <path id="XMLID_139_" d="M549.7,672.5C544.2,673 536.8,673.4 531.2,673.8" style="fill:none;fill-rule:nonzero;stroke:rgb(58,55,54);stroke-width:4px;"/>
            <path id="XMLID_106_" d="M397.8,674.6C361.5,671.8 328.3,665.8 300.2,655.3C320.2,678.9 345.3,694.4 371,700L613,700C613,685.7 621.2,672.3 633.9,660.9C609.8,665.5 584.5,669.1 558.2,671.6" style="fill:none;fill-rule:nonzero;stroke:rgb(58,55,54);stroke-width:4px;"/>
            <path id="XMLID_14_" d="M713,625.2C717.9,604.4 721.4,583.9 728.4,564.3C697.2,582.3 678.7,586.4 651.2,590.3C637.8,592.2 624.5,593.5 611.6,594.1C599.6,612.4 589.5,626.1 518.3,636.2C460.9,644.4 352.6,645 272.2,608C292.2,658.3 330.9,691.1 371,699.8L613,699.8C613.1,663.5 665.9,633 713,625.2Z" style="fill:none;fill-rule:nonzero;stroke:rgb(58,55,54);stroke-width:6px;"/>
        </g>
        <g id="XMLID_53_" transform="matrix(1.83203,0,0,1.83203,-401.725,-444.444)">
            <path d="M307.8,594.6L381.3,594.6C372.2,585.5 371,572.6 376.6,564.4C365,558 362.6,539.4 368.4,533.6C368.4,533.6 360.5,531.5 354.7,522.8C345.1,508.5 350.3,491.1 350.3,491.1C321,492.3 313.8,474.1 313.8,474.1L270,507.9C269.9,507.9 307.8,542.2 307.8,594.6Z" style="fill:rgb(224,77,43);fill-rule:nonzero;"/>
        </g>
        <g id="XMLID_133_" transform="matrix(1.83203,0,0,1.83203,-401.725,-444.444)">
            <path d="M342.9,594.6C343.5,589.4 343.9,584.1 343.9,578.6C343.9,532.7 320.8,495.1 291.3,491.4L269.9,507.9C269.9,507.9 307.8,542.2 307.8,594.6L342.9,594.6Z" style="fill:rgb(250,146,61);fill-opacity:0.66;fill-rule:nonzero;"/>
        </g>
        <g id="XMLID_41_" transform="matrix(1.83203,0,0,1.83203,-401.725,-444.444)">
            <g opacity="0.3">
                <path id="XMLID_72_" d="M280.2,500C280.2,500 327.7,543 329,594.6" style="fill:none;fill-rule:nonzero;stroke:rgb(178,47,34);stroke-width:2px;"/>
                <path id="XMLID_77_" d="M291.3,491.4C291.3,491.4 339.1,523.6 350.2,594.2" style="fill:none;fill-rule:nonzero;stroke:rgb(178,47,34);stroke-width:2px;"/>
                <path id="XMLID_108_" d="M302.7,482.6C302.7,482.6 356.7,516.9 368.3,594.7" style="fill:none;fill-rule:nonzero;stroke:rgb(178,47,34);stroke-width:2px;"/>
            </g>
        </g>
        <g id="XMLID_64_" transform="matrix(1.83203,0,0,1.83203,-401.725,-444.444)">
            <path d="M307.8,594.6L381.3,594.6C372.2,585.5 371,572.6 376.6,564.4C365,558 362.6,539.4 368.4,533.6C368.4,533.6 360.5,531.5 354.7,522.8C345.1,508.5 350.3,491.1 350.3,491.1C321,492.3 313.8,474.1 313.8,474.1L270,507.9C269.9,507.9 307.8,542.2 307.8,594.6Z" style="fill:none;fill-rule:nonzero;stroke:rgb(58,55,54);stroke-width:6px;"/>
        </g>
        <g id="XMLID_1_" transform="matrix(1.83203,0,0,1.83203,-401.725,-444.444)">
            <path d="M698,558.1C704,548.2 707.5,536.1 707.5,523C707.5,498.6 695.2,477.5 677.4,467.9C670.4,475.6 662.4,483.4 654.2,491.1L653,558C668,559.4 683,559.4 698,558.1Z" style="fill:rgb(250,146,61);fill-opacity:0.66;fill-rule:nonzero;"/>
        </g>
        <g id="XMLID_57_" transform="matrix(1.83203,0,0,1.83203,-401.725,-444.444)">
            <g opacity="0.3">
                <path id="XMLID_122_" d="M661.5,484.2C661.5,484.2 670.8,538.4 664.5,558.7" style="fill:none;fill-rule:nonzero;stroke:rgb(178,47,34);stroke-width:2px;"/>
                <path id="XMLID_130_" d="M685.9,458C685.9,458 721.5,491.3 728.4,553" style="fill:none;fill-rule:nonzero;stroke:rgb(178,47,34);stroke-width:2px;"/>
                <path id="XMLID_159_" d="M668.7,477.1C668.7,477.1 685.9,510.7 685.9,559.1" style="fill:none;fill-rule:nonzero;stroke:rgb(178,47,34);stroke-width:2px;"/>
                <path id="XMLID_162_" d="M677.4,467.9C677.4,467.9 703,508.8 708.9,556.9" style="fill:none;fill-rule:nonzero;stroke:rgb(178,47,34);stroke-width:2px;"/>
            </g>
        </g>
        <g id="XMLID_29_" transform="matrix(1.83203,0,0,1.83203,-401.725,-444.444)">
            <path d="M653,558C683.5,560.7 714,558 744.5,549.8C739.9,542.4 739,520.3 742.6,513.4C734,512.8 733.6,490.6 736,479.6C723.7,474.7 715.1,468.5 713.6,459.7C704.5,458.2 698.9,452.5 695.8,443.9C686.5,459.7 671,475.4 654.2,491.1L653,558Z" style="fill:none;fill-rule:nonzero;stroke:rgb(58,55,54);stroke-width:3px;"/>
        </g>
        <g id="XMLID_33_" transform="matrix(1.83203,0,0,1.83203,-401.725,-444.444)">
            <path d="M653.8,501.5C677.9,487.9 697.3,475.3 713.6,459.8" style="fill:none;fill-rule:nonzero;stroke:rgb(58,55,54);stroke-width:3px;"/>
        </g>
        <g id="XMLID_79_" transform="matrix(1.83203,0,0,1.83203,-401.725,-444.444)">
            <path d="M707.5,700L710.2,700" style="fill:none;fill-rule:nonzero;stroke:rgb(58,55,54);stroke-width:6px;"/>
        </g>
        <g id="XMLID_127_" transform="matrix(1.83203,0,0,1.83203,-401.725,-444.444)">
            <path d="M668.7,700L691.3,700" style="fill:none;fill-rule:nonzero;stroke:rgb(58,55,54);stroke-width:6px;"/>
        </g>
        <g id="XMLID_129_" transform="matrix(1.83203,0,0,1.83203,-401.725,-444.444)">
            <path d="M273.5,700L651.2,700" style="fill:none;fill-rule:nonzero;stroke:rgb(58,55,54);stroke-width:6px;"/>
        </g>
        <g id="XMLID_97_" transform="matrix(1.83203,0,0,1.83203,-401.725,-444.444)">
            <path d="M239.9,700L252,700" style="fill:none;fill-rule:nonzero;stroke:rgb(58,55,54);stroke-width:6px;"/>
        </g>
        <g id="XMLID_5_" transform="matrix(1.83203,0,0,1.83203,-401.725,-444.444)">
            <g opacity="0.48">
                <path id="XMLID_118_" d="M592.7,715.5L614.3,715.5" style="fill:none;fill-rule:nonzero;stroke:rgb(41,133,137);stroke-width:6px;"/>
                <path id="XMLID_99_" d="M541.4,715.5L578.1,715.5" style="fill:none;fill-rule:nonzero;stroke:rgb(41,133,137);stroke-width:6px;"/>
            </g>
        </g>
        <g id="XMLID_67_" transform="matrix(1.83203,0,0,1.83203,-401.725,-444.444)">
            <path id="XMLID_103_" d="M488.2,743.5L495.9,743.5" style="fill:none;fill-rule:nonzero;stroke:rgb(58,55,54);stroke-width:6px;"/>
            <path id="XMLID_102_" d="M451.7,743.5L475.7,743.5" style="fill:none;fill-rule:nonzero;stroke:rgb(58,55,54);stroke-width:6px;"/>
        </g>
        <g id="XMLID_8_" transform="matrix(1.83203,0,0,1.83203,-401.725,-444.444)">
            <path d="M280.8,479.7C280.8,479.7 332.4,549.9 319.1,625" style="fill:none;fill-rule:nonzero;stroke:rgb(58,55,54);stroke-width:6px;"/>
        </g>
        <g id="XMLID_121_" transform="matrix(1.83203,0,0,1.83203,-401.725,-444.444)">
            <path d="M285.1,526L350.1,491.1" style="fill:none;fill-rule:nonzero;stroke:rgb(58,55,54);stroke-width:3px;"/>
        </g>
        <g id="XMLID_124_" transform="matrix(1.83203,0,0,1.83203,-401.725,-444.444)">
            <path d="M298.4,549.9L368.3,533.7" style="fill:none;fill-rule:nonzero;stroke:rgb(58,55,54);stroke-width:3px;"/>
        </g>
        <g id="XMLID_125_" transform="matrix(1.83203,0,0,1.83203,-401.725,-444.444)">
            <path d="M306.9,573.9L375.7,565.9" style="fill:none;fill-rule:nonzero;stroke:rgb(58,55,54);stroke-width:3px;"/>
        </g>
        <g id="XMLID_43_" transform="matrix(1.83203,0,0,1.83203,-401.725,-444.444)">
            <g opacity="0.62">
                <path id="XMLID_78_" d="M481.4,715.5L484.8,715.5" style="fill:none;fill-rule:nonzero;stroke:rgb(58,55,54);stroke-width:6px;"/>
                <path id="XMLID_74_" d="M454.6,715.5L469,715.5" style="fill:none;fill-rule:nonzero;stroke:rgb(58,55,54);stroke-width:6px;"/>
                <path id="XMLID_115_" d="M359.6,715.5L439.4,715.5" style="fill:none;fill-rule:nonzero;stroke:rgb(58,55,54);stroke-width:6px;"/>
                <path id="XMLID_32_" d="M343.8,715.5L346.9,715.5" style="fill:none;fill-rule:nonzero;stroke:rgb(58,55,54);stroke-width:6px;"/>
            </g>
        </g>
        <g id="XMLID_3_" transform="matrix(1.83203,0,0,1.83203,-401.725,-444.444)">
            <path id="XMLID_76_" d="M579.1,754.8L651,754.8" style="fill:none;fill-rule:nonzero;stroke:rgb(58,55,54);stroke-width:6px;"/>
            <path id="XMLID_6_" d="M554.3,754.8L566.7,754.8" style="fill:none;fill-rule:nonzero;stroke:rgb(58,55,54);stroke-width:6px;"/>
            <path id="XMLID_34_" d="M534.5,754.8L539.7,754.8" style="fill:none;fill-rule:nonzero;stroke:rgb(58,55,54);stroke-width:6px;"/>
        </g>
        <g id="XMLID_131_" transform="matrix(1.83203,0,0,1.83203,-401.725,-444.444)">
            <path id="XMLID_137_" d="M685.9,601C694.5,599.7 703,596.9 708.8,594.1" style="fill:none;fill-rule:nonzero;stroke:rgb(58,55,54);stroke-width:3px;"/>
            <path id="XMLID_135_" d="M621.4,610.8C621.4,610.8 651.2,608.6 675.8,603.4" style="fill:none;fill-rule:nonzero;stroke:rgb(58,55,54);stroke-width:3px;"/>
        </g>
        <g id="XMLID_111_" transform="matrix(1.83203,0,0,1.83203,-401.725,-444.444)">
            <path d="M653.8,541.8C687.2,541.8 723.4,530.8 742.6,513.5" style="fill:none;fill-rule:nonzero;stroke:rgb(58,55,54);stroke-width:3px;"/>
        </g>
        <g id="XMLID_119_" transform="matrix(1.83203,0,0,1.83203,-401.725,-444.444)">
            <path d="M653,524.8C680.9,517.6 708.9,503.1 736,479.6" style="fill:none;fill-rule:nonzero;stroke:rgb(58,55,54);stroke-width:3px;"/>
        </g>
        <g id="XMLID_62_" transform="matrix(1.83203,0,0,1.83203,-401.725,-444.444)">
            <path d="M674.6,462.3C674.6,462.3 666.1,533.7 669.5,587.4" style="fill:none;fill-rule:nonzero;stroke:rgb(58,55,54);stroke-width:6px;"/>
        </g>
    </g>
</svg>
