<?xml version="1.0" encoding="UTF-8" standalone="no"?>
<!DOCTYPE svg PUBLIC "-//W3C//DTD SVG 1.1//EN" "http://www.w3.org/Graphics/SVG/1.1/DTD/svg11.dtd">
<svg width="100%" height="100%" viewBox="0 0 1024 1024" version="1.1" xmlns="http://www.w3.org/2000/svg" xmlns:xlink="http://www.w3.org/1999/xlink" xml:space="preserve" xmlns:serif="http://www.serif.com/" style="fill-rule:evenodd;clip-rule:evenodd;stroke-linejoin:round;stroke-miterlimit:2;">
    <g transform="matrix(5.83566,0,0,5.83566,-2226.65,-2126.72)">
        <ellipse cx="469.296" cy="452.173" rx="82.948" ry="83.089" style="fill:rgb(93,93,90);"/>
        <clipPath id="_clip1">
            <ellipse cx="469.296" cy="452.173" rx="82.948" ry="83.089"/>
        </clipPath>
        <g clip-path="url(#_clip1)">
            <g transform="matrix(1,0,0,1,28.7168,10.5)">
                <ellipse cx="412.194" cy="470.766" rx="19.909" ry="19.385" style="fill:rgb(255,164,92);"/>
            </g>
            <g transform="matrix(1,0,0,1,34.6544,13.6435)">
                <path d="M402.743,419.479C419.932,418.707 429.846,421.242 442.283,432.758C444.158,434.494 445.861,436.418 447.377,438.529C452.964,446.308 456.004,456.619 455.679,469.369C455.542,474.703 446.45,476.514 443.582,472.681C442.252,471.967 441.44,462.368 438.215,452.254C434.898,445.825 429.657,440.464 422.148,436.362C417.79,433.806 412.28,432.085 404.196,432.323C397.65,430.739 396.882,423.149 402.743,419.479Z" style="fill:rgb(255,205,171);"/>
            </g>
            <g transform="matrix(1,0,0,1,34.6544,13.6435)">
                <path d="M403.277,386.997C426.454,384.179 446.316,393.278 462.217,409.162C480.698,426.002 488.486,446.01 487.321,468.67C486.928,472.371 485.415,473.669 481.298,474.549C478.15,475.223 473.34,473.481 473.374,470.035C473.544,452.275 467.594,436.494 455.395,423.101C445.783,412.031 432.779,405.324 416.647,402.636L403.277,400.999C396.848,397.536 397.563,391.021 403.277,386.997Z" style="fill:rgb(255,244,227);"/>
            </g>
        </g>
    </g>
</svg>
