<?xml version="1.0" encoding="UTF-8" standalone="no"?>
<!DOCTYPE svg PUBLIC "-//W3C//DTD SVG 1.1//EN" "http://www.w3.org/Graphics/SVG/1.1/DTD/svg11.dtd">
<svg width="100%" height="100%" viewBox="0 0 1000 1000" version="1.1" xmlns="http://www.w3.org/2000/svg" xmlns:xlink="http://www.w3.org/1999/xlink" xml:space="preserve" xmlns:serif="http://www.serif.com/" style="fill-rule:evenodd;clip-rule:evenodd;stroke-miterlimit:10;">
    <g transform="matrix(1.31861,0,0,1.31861,-142.313,-116.861)">
        <path d="M793.432,662.59L655.74,749.421C641.492,758.406 623.968,760.623 607.931,755.469L457,706.953C440.86,701.766 423.218,704.046 408.928,713.168L298.428,783.705C294.303,786.311 289.523,787.695 284.644,787.695C273.152,787.695 262.981,780.019 259.828,768.969L164.458,434.629C161.327,423.649 165.837,411.836 175.488,405.736L314.648,317.787C330.257,307.922 349.468,305.482 367.048,311.132L513.163,358.1C530.808,363.771 550.093,361.292 565.729,351.342L670.367,284.753C674.507,282.119 679.314,280.719 684.221,280.719C695.713,280.719 705.885,288.395 709.038,299.446L804.393,633.74C807.517,644.691 803.039,656.476 793.432,662.59Z" style="fill:rgb(204,205,207);fill-opacity:0.4;fill-rule:nonzero;"/>
    </g>
    <g transform="matrix(1.31861,0,0,1.31861,-142.313,-116.861)">
        <path d="M798.808,627.107L681.23,701.929C665.594,711.879 646.309,714.358 628.664,708.687L482.539,661.719C464.959,656.069 445.748,658.509 430.139,668.373L303.8,748.222C299.675,750.828 294.895,752.212 290.016,752.212C278.524,752.212 268.353,744.536 265.2,733.486L169.831,399.146C166.699,388.167 171.209,376.353 180.86,370.253L320.013,282.3C335.622,272.435 354.833,269.996 372.413,275.646L518.537,322.615C536.182,328.287 555.467,325.807 571.103,315.856L675.741,249.268C679.881,246.634 684.688,245.234 689.595,245.234C701.087,245.234 711.259,252.91 714.412,263.961L809.767,598.253C812.893,609.205 808.416,620.992 798.808,627.107Z" style="fill:white;fill-rule:nonzero;"/>
    </g>
    <g transform="matrix(1.31861,0,0,1.31861,-142.313,-116.861)">
        <path d="M468.513,623.926L446.65,562.24L343.331,597.611L311.024,504.005L226.873,520.753L285.873,727.587C286.407,729.445 288.123,730.732 290.057,730.724C290.858,730.721 291.64,730.484 292.308,730.043L412.422,654.13C411.9,653.519 468.513,623.926 468.513,623.926Z" style="fill:rgb(234,244,247);fill-rule:nonzero;"/>
    </g>
    <g transform="matrix(1.31861,0,0,1.31861,-142.313,-116.861)">
        <path d="M798.808,627.107L681.23,701.929C665.594,711.879 646.309,714.358 628.664,708.687L482.539,661.719C464.959,656.069 445.748,658.509 430.139,668.373L303.8,748.222C299.675,750.828 294.895,752.212 290.016,752.212C278.524,752.212 268.353,744.536 265.2,733.486L169.831,399.146C166.699,388.167 171.209,376.353 180.86,370.253L320.013,282.3C335.622,272.435 354.833,269.996 372.413,275.646L518.537,322.615C536.182,328.287 555.467,325.807 571.103,315.856L675.741,249.268C679.881,246.634 684.688,245.234 689.595,245.234C701.087,245.234 711.259,252.91 714.412,263.961L809.767,598.253C812.893,609.205 808.416,620.992 798.808,627.107Z" style="fill:none;fill-rule:nonzero;stroke:rgb(54,58,90);stroke-width:6px;"/>
    </g>
    <g transform="matrix(1.31861,0,0,1.31861,-142.313,-116.861)">
        <path d="M360.066,585.575C360.066,585.575 361.858,585.108 364.878,584.226" style="fill:none;fill-rule:nonzero;stroke:rgb(54,58,90);stroke-width:4px;stroke-linecap:round;stroke-linejoin:round;stroke-miterlimit:4;"/>
    </g>
    <g transform="matrix(1.31861,0,0,1.31861,-142.313,-116.861)">
        <path d="M379.416,579.572C400.65,572.185 431.81,558.629 432.184,542.597C432.684,521.297 329.452,414.731 384.951,408.289C570.239,386.783 487.218,540.889 571.723,537.445C607.423,535.99 541.402,486.906 643.405,451.427C658.526,446.167 651.014,407.711 645.941,387.605" style="fill:none;fill-rule:nonzero;stroke:rgb(54,58,90);stroke-width:4px;stroke-linecap:round;stroke-linejoin:round;stroke-miterlimit:4;stroke-dasharray:10.18,15.26;"/>
    </g>
    <g transform="matrix(1.31861,0,0,1.31861,-142.313,-116.861)">
        <path d="M643.979,380.226C643.135,377.209 642.579,375.426 642.579,375.426" style="fill:none;fill-rule:nonzero;stroke:rgb(54,58,90);stroke-width:4px;stroke-linecap:round;stroke-linejoin:round;stroke-miterlimit:4;"/>
    </g>
    <g transform="matrix(1.31861,0,0,1.31861,-142.313,-116.861)">
        <circle cx="353.612" cy="588.178" r="48.192" style="fill:rgb(61,192,203);fill-opacity:0.22;"/>
    </g>
    <g transform="matrix(1.31861,0,0,1.31861,-142.313,-116.861)">
        <circle cx="353.612" cy="588.178" r="27.946" style="fill:rgb(61,192,203);"/>
    </g>
    <g transform="matrix(1.31861,0,0,1.31861,-142.313,-116.861)">
        <path d="M353.612,560.232C344.935,560.227 336.734,564.27 331.454,571.156C336.086,568.007 341.56,566.323 347.161,566.323C362.49,566.323 375.103,578.937 375.103,594.265C375.103,600.424 373.067,606.413 369.314,611.295C376.965,606.098 381.557,597.427 381.557,588.178C381.557,572.848 368.944,560.234 353.614,560.232L353.612,560.232Z" style="fill:rgb(100,199,207);fill-rule:nonzero;"/>
    </g>
    <g transform="matrix(1.31861,0,0,1.31861,-142.313,-116.861)">
        <circle cx="353.612" cy="588.178" r="27.946" style="fill:none;stroke:rgb(54,58,90);stroke-width:6px;"/>
    </g>
    <g transform="matrix(1.31861,0,0,1.31861,-142.313,-116.861)">
        <path d="M366.347,338.84L446.5,354.033L428.093,321.681L361.754,298.536C354.008,295.834 345.497,296.321 338.109,299.888L192.342,388.431C190.739,389.453 189.989,391.417 190.503,393.247L214.011,475.659L278.1,459.812L266.33,412.6L366.347,338.84Z" style="fill:rgb(135,213,247);fill-rule:nonzero;stroke:rgb(37,154,214);stroke-width:4px;stroke-linecap:round;stroke-linejoin:round;stroke-miterlimit:4;"/>
    </g>
    <g transform="matrix(1.31861,0,0,1.31861,-142.313,-116.861)">
        <path d="M493.37,542.929L539.109,554.445L561.222,605.126L511.949,597.049L493.37,542.929Z" style="fill:rgb(253,220,191);fill-rule:nonzero;stroke:rgb(236,176,114);stroke-width:4px;stroke-linecap:round;stroke-linejoin:round;stroke-miterlimit:4;"/>
    </g>
    <g transform="matrix(1.31861,0,0,1.31861,-142.313,-116.861)">
        <path d="M643.426,391.11C606.269,391.11 576.148,380.334 576.148,367.041C576.148,353.748 606.269,342.971 643.426,342.971C680.583,342.971 710.703,353.748 710.703,367.041C710.703,380.334 680.582,391.11 643.426,391.11Z" style="fill:rgb(234,244,247);fill-rule:nonzero;"/>
    </g>
    <g transform="matrix(1.31861,0,0,1.31861,-142.313,-116.861)">
        <path d="M664.538,527.486L748.465,490.952L781.62,591.961L645.718,669.193L620.808,598.893L673.948,569.002L664.538,527.486Z" style="fill:rgb(253,220,191);fill-rule:nonzero;stroke:rgb(236,176,114);stroke-width:4px;stroke-linecap:round;stroke-linejoin:round;stroke-miterlimit:4;"/>
    </g>
    <g transform="matrix(1.31861,0,0,1.31861,-142.313,-116.861)">
        <path d="M742.481,249.681C742.481,191.881 695.567,145.337 638.72,148.039C587.82,150.459 544.428,193.821 544.428,246.163C544.428,321.88 643.428,380.263 643.428,380.263C643.428,380.263 742.481,321.88 742.481,249.681Z" style="fill:rgb(93,93,90);fill-rule:nonzero;"/>
    </g>
    <g transform="matrix(1.31861,0,0,1.31861,-142.313,-116.861)">
        <path d="M679.585,350.964C663.573,363.456 640.911,363.378 624.985,350.776C621.508,348.023 617.848,345.004 614.096,341.738C586.225,317.476 553.308,279.575 553.308,235.916C553.381,214.887 560.34,194.45 573.116,177.746C555.543,195.492 544.427,219.676 544.427,246.163C544.427,321.88 643.427,380.263 643.427,380.263C643.427,380.263 683.801,356.463 712.998,320.463C702.692,331.506 691.519,341.705 679.585,350.964Z" style="fill:rgb(69,69,65);fill-rule:nonzero;"/>
    </g>
    <g transform="matrix(1.31861,0,0,1.31861,-142.313,-116.861)">
        <path d="M638.72,148.039C620.874,148.958 603.616,154.742 588.82,164.762C600.472,159.143 613.134,155.918 626.054,155.277C682.901,152.577 729.816,199.118 729.816,256.919C729.816,313.529 668.922,361.643 642.624,379.782C643.139,380.096 643.424,380.266 643.424,380.266C643.424,380.266 742.479,321.88 742.479,249.681C742.481,191.881 695.567,145.337 638.72,148.039Z" style="fill:rgb(133,133,133);fill-rule:nonzero;"/>
    </g>
    <g transform="matrix(1.31861,0,0,1.31861,-142.313,-116.861)">
        <path d="M643.426,288.605L643.425,288.605C621.067,288.605 602.669,270.207 602.669,247.849C602.669,225.491 621.067,207.093 643.425,207.093C665.783,207.093 684.181,225.491 684.181,247.849C684.181,270.207 665.784,288.604 643.426,288.605Z" style="fill:white;fill-rule:nonzero;"/>
    </g>
    <g transform="matrix(1.31861,0,0,1.31861,-142.313,-116.861)">
        <path d="M643.426,288.605L643.425,288.605C621.067,288.605 602.669,270.207 602.669,247.849C602.669,225.491 621.067,207.093 643.425,207.093C665.783,207.093 684.181,225.491 684.181,247.849C684.181,270.207 665.784,288.604 643.426,288.605Z" style="fill:none;fill-rule:nonzero;stroke:rgb(54,58,90);stroke-width:6px;"/>
    </g>
    <g transform="matrix(1.31861,0,0,1.31861,-142.313,-116.861)">
        <path d="M742.481,249.681C742.481,191.881 695.567,145.337 638.72,148.039C587.82,150.459 544.428,193.821 544.428,246.163C544.428,321.88 643.428,380.263 643.428,380.263C643.428,380.263 742.481,321.88 742.481,249.681Z" style="fill:none;fill-rule:nonzero;stroke:rgb(54,58,90);stroke-width:6px;stroke-linecap:round;stroke-linejoin:round;stroke-miterlimit:4;"/>
    </g>
</svg>
